<?xml version="1.0" ?><!DOCTYPE svg  PUBLIC '-//W3C//DTD SVG 1.1//EN'  'http://www.w3.org/Graphics/SVG/1.1/DTD/svg11.dtd'><svg enable-background="new 0 0 128 128" height="128px" id="Layer_1" version="1.1" viewBox="0 0 128 128" width="128px" xml:space="preserve" xmlns="http://www.w3.org/2000/svg" xmlns:xlink="http://www.w3.org/1999/xlink"><path d="M56,0c13.234,0,24,10.766,24,24v60c0,8.82-7.18,16-16,16s-16-7.18-16-16V36c0-2.211,1.789-4,4-4s4,1.789,4,4  v48c0,4.414,3.586,8,8,8s8-3.586,8-8V24c0-8.82-7.18-16-16-16s-16,7.18-16,16v72c0,13.234,10.766,24,24,24s24-10.766,24-24V36  c0-2.211,1.789-4,4-4s4,1.789,4,4v60c0,17.648-14.352,32-32,32s-32-14.352-32-32V24C32,10.766,42.766,0,56,0z" fill="#546E7A"/></svg>